Courier Prime Bold.ufo
<glyph name="exclam" format="1">
  <advance width="1228"/>
  <unicode hex="0021"/>
  <outline>
    <contour>
      <point x="499" y="1269" type="line" smooth="yes"/>
      <point x="469" y="1269"/>
      <point x="455" y="1254"/>
      <point x="458" y="1219" type="curve" smooth="yes"/>
      <point x="515" y="562" type="line" smooth="yes"/>
      <point x="518" y="524"/>
      <point x="550" y="504"/>
      <point x="614" y="504" type="curve" smooth="yes"/>
      <point x="678" y="504"/>
      <point x="710" y="524"/>
      <point x="713" y="562" type="curve" smooth="yes"/>
      <point x="770" y="1219" type="line" smooth="yes"/>
      <point x="773" y="1254"/>
      <point x="759" y="1269"/>
      <point x="729" y="1269" type="curve" smooth="yes"/>
    </contour>
    <contour>
      <point x="505" y="330"/>
      <point x="459" y="312"/>
      <point x="459" y="267" type="curve" smooth="yes"/>
      <point x="459" y="53" type="line" smooth="yes"/>
      <point x="459" y="8"/>
      <point x="505" y="-10"/>
      <point x="614" y="-10" type="curve" smooth="yes"/>
      <point x="723" y="-10"/>
      <point x="769" y="8"/>
      <point x="769" y="53" type="curve" smooth="yes"/>
      <point x="769" y="267" type="line" smooth="yes"/>
      <point x="769" y="312"/>
      <point x="723" y="330"/>
      <point x="614" y="330" type="curve" smooth="yes"/>
    </contour>
  </outline>
</glyph>
<glyph name="numbersign" format="1">
  <advance width="1228"/>
  <unicode hex="0023"/>
  <outline>
    <contour>
      <point x="925" y="1209"/>
      <point x="893" y="1199"/>
      <point x="886" y="1176" type="curve" smooth="yes"/>
      <point x="812" y="940" type="line"/>
      <point x="633" y="940" type="line"/>
      <point x="696" y="1142" type="line" smooth="yes"/>
      <point x="709" y="1183"/>
      <point x="643" y="1209"/>
      <point x="586" y="1209" type="curve" smooth="yes"/>
      <point x="551" y="1209"/>
      <point x="519" y="1199"/>
      <point x="512" y="1176" type="curve" smooth="yes"/>
      <point x="438" y="940" type="line"/>
      <point x="203" y="940" type="line" smooth="yes"/>
      <point x="158" y="940"/>
      <point x="140" y="922"/>
      <point x="140" y="827" type="curve" smooth="yes"/>
      <point x="140" y="732"/>
      <point x="158" y="715"/>
      <point x="203" y="715" type="curve" smooth="yes"/>
      <point x="368" y="715" type="line"/>
      <point x="295" y="482" type="line"/>
      <point x="103" y="482" type="line" smooth="yes"/>
      <point x="58" y="482"/>
      <point x="40" y="464"/>
      <point x="40" y="369" type="curve" smooth="yes"/>
      <point x="40" y="274"/>
      <point x="58" y="257"/>
      <point x="103" y="257" type="curve" smooth="yes"/>
      <point x="224" y="257" type="line"/>
      <point x="158" y="45" type="line" smooth="yes"/>
      <point x="145" y="4"/>
      <point x="211" y="-22"/>
      <point x="268" y="-22" type="curve" smooth="yes"/>
      <point x="303" y="-22"/>
      <point x="335" y="-12"/>
      <point x="342" y="11" type="curve" smooth="yes"/>
      <point x="419" y="257" type="line"/>
      <point x="598" y="257" type="line"/>
      <point x="532" y="45" type="line" smooth="yes"/>
      <point x="519" y="4"/>
      <point x="585" y="-22"/>
      <point x="642" y="-22" type="curve" smooth="yes"/>
      <point x="677" y="-22"/>
      <point x="709" y="-12"/>
      <point x="716" y="11" type="curve" smooth="yes"/>
      <point x="793" y="257" type="line"/>
      <point x="1025" y="257" type="line" smooth="yes"/>
      <point x="1070" y="257"/>
      <point x="1088" y="274"/>
      <point x="1088" y="369" type="curve" smooth="yes"/>
      <point x="1088" y="464"/>
      <point x="1070" y="482"/>
      <point x="1025" y="482" type="curve" smooth="yes"/>
      <point x="863" y="482" type="line"/>
      <point x="936" y="715" type="line"/>
      <point x="1125" y="715" type="line" smooth="yes"/>
      <point x="1170" y="715"/>
      <point x="1188" y="732"/>
      <point x="1188" y="827" type="curve" smooth="yes"/>
      <point x="1188" y="922"/>
      <point x="1170" y="940"/>
      <point x="1125" y="940" type="curve" smooth="yes"/>
      <point x="1007" y="940" type="line"/>
      <point x="1070" y="1142" type="line" smooth="yes"/>
      <point x="1083" y="1183"/>
      <point x="1017" y="1209"/>
      <point x="960" y="1209" type="curve" smooth="yes"/>
    </contour>
    <contour>
      <point x="669" y="482" type="line"/>
      <point x="489" y="482" type="line"/>
      <point x="562" y="715" type="line"/>
      <point x="742" y="715" type="line"/>
    </contour>
  </outline>
</glyph>
<glyph name="dollar" format="1">
  <advance width="1228"/>
  <unicode hex="0024"/>
  <outline>
    <contour>
      <point x="533" y="1312"/>
      <point x="515" y="1294"/>
      <point x="515" y="1249" type="curve" smooth="yes"/>
      <point x="515" y="1086" type="line"/>
      <point x="314" y="1082"/>
      <point x="164" y="975"/>
      <point x="164" y="800" type="curve" smooth="yes"/>
      <point x="164" y="676"/>
      <point x="222" y="604"/>
      <point x="302" y="560" type="curve" smooth="yes"/>
      <point x="364" y="525"/>
      <point x="440" y="508"/>
      <point x="515" y="496" type="curve"/>
      <point x="515" y="335" type="line"/>
      <point x="452" y="353"/>
      <point x="395" y="386"/>
      <point x="353" y="439" type="curve" smooth="yes"/>
      <point x="339" y="457"/>
      <point x="314" y="467"/>
      <point x="270" y="467" type="curve" smooth="yes"/>
      <point x="205" y="467"/>
      <point x="174" y="449"/>
      <point x="174" y="404" type="curve" smooth="yes"/>
      <point x="174" y="181" type="line" smooth="yes"/>
      <point x="174" y="136"/>
      <point x="207" y="118"/>
      <point x="292" y="118" type="curve" smooth="yes"/>
      <point x="377" y="118"/>
      <point x="414" y="136"/>
      <point x="414" y="181" type="curve" smooth="yes"/>
      <point x="414" y="189" type="line"/>
      <point x="445" y="170"/>
      <point x="478" y="154"/>
      <point x="515" y="142" type="curve"/>
      <point x="515" y="-62" type="line" smooth="yes"/>
      <point x="515" y="-107"/>
      <point x="533" y="-125"/>
      <point x="608" y="-125" type="curve" smooth="yes"/>
      <point x="683" y="-125"/>
      <point x="701" y="-107"/>
      <point x="701" y="-62" type="curve" smooth="yes"/>
      <point x="701" y="118" type="line"/>
      <point x="938" y="127"/>
      <point x="1070" y="245"/>
      <point x="1070" y="427" type="curve" smooth="yes"/>
      <point x="1070" y="564"/>
      <point x="997" y="635"/>
      <point x="900" y="675" type="curve" smooth="yes"/>
      <point x="839" y="700"/>
      <point x="769" y="713"/>
      <point x="701" y="721" type="curve"/>
      <point x="701" y="867" type="line"/>
      <point x="760" y="849"/>
      <point x="813" y="819"/>
      <point x="859" y="770" type="curve" smooth="yes"/>
      <point x="873" y="755"/>
      <point x="897" y="749"/>
      <point x="932" y="749" type="curve" smooth="yes"/>
      <point x="997" y="749"/>
      <point x="1024" y="767"/>
      <point x="1024" y="812" type="curve" smooth="yes"/>
      <point x="1024" y="1023" type="line" smooth="yes"/>
      <point x="1024" y="1068"/>
      <point x="991" y="1086"/>
      <point x="906" y="1086" type="curve" smooth="yes"/>
      <point x="821" y="1086"/>
      <point x="794" y="1068"/>
      <point x="794" y="1023" type="curve" smooth="yes"/>
      <point x="794" y="1013" type="line"/>
      <point x="765" y="1031"/>
      <point x="734" y="1046"/>
      <point x="701" y="1058" type="curve"/>
      <point x="701" y="1249" type="line" smooth="yes"/>
      <point x="701" y="1294"/>
      <point x="683" y="1312"/>
      <point x="608" y="1312" type="curve" smooth="yes"/>
    </contour>
    <contour>
      <point x="730" y="469"/>
      <point x="752" y="463"/>
      <point x="770" y="455" type="curve" smooth="yes"/>
      <point x="798" y="441"/>
      <point x="812" y="423"/>
      <point x="812" y="401" type="curve" smooth="yes"/>
      <point x="812" y="356"/>
      <point x="777" y="328"/>
      <point x="701" y="320" type="curve"/>
      <point x="701" y="473" type="line"/>
    </contour>
    <contour>
      <point x="515" y="742" type="line"/>
      <point x="495" y="745"/>
      <point x="474" y="750"/>
      <point x="458" y="758" type="curve" smooth="yes"/>
      <point x="437" y="769"/>
      <point x="422" y="785"/>
      <point x="422" y="809" type="curve" smooth="yes"/>
      <point x="422" y="847"/>
      <point x="455" y="876"/>
      <point x="515" y="884" type="curve"/>
    </contour>
  </outline>
</glyph>
<glyph name="slash" format="1">
  <advance width="1228"/>
  <unicode hex="002F"/>
  <outline>
    <contour>
      <point x="869" y="1399"/>
      <point x="841" y="1385"/>
      <point x="829" y="1356" type="curve" smooth="yes"/>
      <point x="163" y="-262" type="line" smooth="yes"/>
      <point x="140" y="-318"/>
      <point x="216" y="-360"/>
      <point x="317" y="-360" type="curve" smooth="yes"/>
      <point x="359" y="-360"/>
      <point x="387" y="-346"/>
      <point x="399" y="-317" type="curve" smooth="yes"/>
      <point x="1065" y="1301" type="line" smooth="yes"/>
      <point x="1088" y="1357"/>
      <point x="1012" y="1399"/>
      <point x="911" y="1399" type="curve" smooth="yes"/>
    </contour>
  </outline>
</glyph>
<glyph name="less" format="1">
  <advance width="1228"/>
  <unicode hex="003C"/>
  <outline>
    <contour>
      <point x="166" y="677" type="line" smooth="yes"/>
      <point x="134" y="661"/>
      <point x="120" y="640"/>
      <point x="120" y="583" type="curve" smooth="yes"/>
      <point x="120" y="526"/>
      <point x="134" y="505"/>
      <point x="166" y="489" type="curve" smooth="yes"/>
      <point x="946" y="87" type="line" smooth="yes"/>
      <point x="987" y="66"/>
      <point x="1016" y="75"/>
      <point x="1056" y="155" type="curve" smooth="yes"/>
      <point x="1096" y="235"/>
      <point x="1088" y="270"/>
      <point x="1046" y="291" type="curve" smooth="yes"/>
      <point x="461" y="583" type="line"/>
      <point x="1046" y="875" type="line" smooth="yes"/>
      <point x="1088" y="896"/>
      <point x="1096" y="931"/>
      <point x="1056" y="1011" type="curve" smooth="yes"/>
      <point x="1016" y="1091"/>
      <point x="987" y="1100"/>
      <point x="946" y="1079" type="curve" smooth="yes"/>
    </contour>
  </outline>
</glyph>
<glyph name="equal" format="1">
  <advance width="1228"/>
  <unicode hex="003D"/>
  <outline>
    <contour>
      <point x="233" y="924" type="line" smooth="yes"/>
      <point x="188" y="924"/>
      <point x="170" y="906"/>
      <point x="170" y="811" type="curve" smooth="yes"/>
      <point x="170" y="716"/>
      <point x="188" y="699"/>
      <point x="233" y="699" type="curve" smooth="yes"/>
      <point x="995" y="699" type="line" smooth="yes"/>
      <point x="1040" y="699"/>
      <point x="1058" y="716"/>
      <point x="1058" y="811" type="curve" smooth="yes"/>
      <point x="1058" y="906"/>
      <point x="1040" y="924"/>
      <point x="995" y="924" type="curve" smooth="yes"/>
    </contour>
    <contour>
      <point x="233" y="466" type="line" smooth="yes"/>
      <point x="188" y="466"/>
      <point x="170" y="448"/>
      <point x="170" y="353" type="curve" smooth="yes"/>
      <point x="170" y="258"/>
      <point x="188" y="241"/>
      <point x="233" y="241" type="curve" smooth="yes"/>
      <point x="995" y="241" type="line" smooth="yes"/>
      <point x="1040" y="241"/>
      <point x="1058" y="258"/>
      <point x="1058" y="353" type="curve" smooth="yes"/>
      <point x="1058" y="448"/>
      <point x="1040" y="466"/>
      <point x="995" y="466" type="curve" smooth="yes"/>
    </contour>
  </outline>
</glyph>
<glyph name="question" format="1">
  <advance width="1228"/>
  <unicode hex="003F"/>
  <outline>
    <contour>
      <point x="477" y="1209"/>
      <point x="359" y="1173"/>
      <point x="249" y="1121" type="curve" smooth="yes"/>
      <point x="222" y="1108"/>
      <point x="208" y="1087"/>
      <point x="208" y="1060" type="curve" smooth="yes"/>
      <point x="208" y="860" type="line" smooth="yes"/>
      <point x="208" y="815"/>
      <point x="245" y="797"/>
      <point x="330" y="797" type="curve" smooth="yes"/>
      <point x="415" y="797"/>
      <point x="438" y="815"/>
      <point x="438" y="860" type="curve" smooth="yes"/>
      <point x="438" y="962" type="line"/>
      <point x="485" y="980"/>
      <point x="537" y="992"/>
      <point x="591" y="992" type="curve" smooth="yes"/>
      <point x="695" y="992"/>
      <point x="747" y="948"/>
      <point x="747" y="869" type="curve" smooth="yes"/>
      <point x="747" y="798"/>
      <point x="703" y="760"/>
      <point x="605" y="744" type="curve" smooth="yes"/>
      <point x="495" y="726" type="line" smooth="yes"/>
      <point x="470" y="722"/>
      <point x="463" y="701"/>
      <point x="465" y="675" type="curve" smooth="yes"/>
      <point x="483" y="467" type="line" smooth="yes"/>
      <point x="486" y="436"/>
      <point x="507" y="419"/>
      <point x="584" y="419" type="curve" smooth="yes"/>
      <point x="661" y="419"/>
      <point x="682" y="436"/>
      <point x="685" y="467" type="curve" smooth="yes"/>
      <point x="694" y="553" type="line"/>
      <point x="898" y="606"/>
      <point x="1001" y="691"/>
      <point x="1001" y="874" type="curve" smooth="yes"/>
      <point x="1001" y="1082"/>
      <point x="858" y="1209"/>
      <point x="590" y="1209" type="curve" smooth="yes"/>
    </contour>
    <contour>
      <point x="490" y="321"/>
      <point x="413" y="244"/>
      <point x="413" y="149" type="curve" smooth="yes"/>
      <point x="413" y="55"/>
      <point x="489" y="-22"/>
      <point x="584" y="-22" type="curve" smooth="yes"/>
      <point x="679" y="-22"/>
      <point x="755" y="55"/>
      <point x="755" y="149" type="curve" smooth="yes"/>
      <point x="755" y="244"/>
      <point x="679" y="321"/>
      <point x="584" y="321" type="curve" smooth="yes"/>
    </contour>
  </outline>
</glyph>
<glyph name="C" format="1">
  <advance width="1228"/>
  <unicode hex="0043"/>
  <outline>
    <contour>
      <point x="921" y="1209"/>
      <point x="884" y="1191"/>
      <point x="884" y="1146" type="curve" smooth="yes"/>
      <point x="884" y="1083" type="line"/>
      <point x="832" y="1160"/>
      <point x="748" y="1209"/>
      <point x="624" y="1209" type="curve" smooth="yes"/>
      <point x="324" y="1209"/>
      <point x="103" y="974"/>
      <point x="103" y="594" type="curve" smooth="yes"/>
      <point x="103" y="214"/>
      <point x="324" y="-22"/>
      <point x="654" y="-22" type="curve" smooth="yes"/>
      <point x="796" y="-22"/>
      <point x="942" y="15"/>
      <point x="1081" y="84" type="curve" smooth="yes"/>
      <point x="1124" y="105"/>
      <point x="1142" y="144"/>
      <point x="1113" y="225" type="curve" smooth="yes"/>
      <point x="1084" y="304"/>
      <point x="1045" y="320"/>
      <point x="1005" y="300" type="curve" smooth="yes"/>
      <point x="889" y="241"/>
      <point x="787" y="205"/>
      <point x="664" y="205" type="curve" smooth="yes"/>
      <point x="477" y="205"/>
      <point x="371" y="346"/>
      <point x="371" y="594" type="curve" smooth="yes"/>
      <point x="371" y="842"/>
      <point x="467" y="982"/>
      <point x="654" y="982" type="curve" smooth="yes"/>
      <point x="792" y="982"/>
      <point x="864" y="891"/>
      <point x="864" y="762" type="curve" smooth="yes"/>
      <point x="864" y="717"/>
      <point x="887" y="699"/>
      <point x="982" y="699" type="curve" smooth="yes"/>
      <point x="1077" y="699"/>
      <point x="1114" y="717"/>
      <point x="1114" y="762" type="curve" smooth="yes"/>
      <point x="1114" y="1146" type="line" smooth="yes"/>
      <point x="1114" y="1191"/>
      <point x="1091" y="1209"/>
      <point x="1006" y="1209" type="curve" smooth="yes"/>
    </contour>
  </outline>
</glyph>
<glyph name="E" format="1">
  <advance width="1228"/>
  <unicode hex="0045"/>
  <outline>
    <contour>
      <point x="123" y="1187" type="line" smooth="yes"/>
      <point x="78" y="1187"/>
      <point x="60" y="1169"/>
      <point x="60" y="1084" type="curve" smooth="yes"/>
      <point x="60" y="999"/>
      <point x="78" y="982"/>
      <point x="123" y="982" type="curve" smooth="yes"/>
      <point x="220" y="982" type="line"/>
      <point x="220" y="205" type="line"/>
      <point x="123" y="205" type="line" smooth="yes"/>
      <point x="78" y="205"/>
      <point x="60" y="187"/>
      <point x="60" y="102" type="curve" smooth="yes"/>
      <point x="60" y="17"/>
      <point x="78" y="0"/>
      <point x="123" y="0" type="curve" smooth="yes"/>
      <point x="1055" y="0" type="line" smooth="yes"/>
      <point x="1101" y="0"/>
      <point x="1120" y="19"/>
      <point x="1120" y="65" type="curve" smooth="yes"/>
      <point x="1120" y="397" type="line" smooth="yes"/>
      <point x="1120" y="442"/>
      <point x="1096" y="460"/>
      <point x="1006" y="460" type="curve" smooth="yes"/>
      <point x="916" y="460"/>
      <point x="880" y="442"/>
      <point x="880" y="397" type="curve" smooth="yes"/>
      <point x="880" y="215" type="line"/>
      <point x="470" y="215" type="line"/>
      <point x="470" y="504" type="line"/>
      <point x="714" y="504" type="line" smooth="yes"/>
      <point x="759" y="504"/>
      <point x="777" y="526"/>
      <point x="777" y="611" type="curve" smooth="yes"/>
      <point x="777" y="696"/>
      <point x="759" y="719"/>
      <point x="714" y="719" type="curve" smooth="yes"/>
      <point x="470" y="719" type="line"/>
      <point x="470" y="972" type="line"/>
      <point x="870" y="972" type="line"/>
      <point x="870" y="840" type="line" smooth="yes"/>
      <point x="870" y="795"/>
      <point x="893" y="777"/>
      <point x="978" y="777" type="curve" smooth="yes"/>
      <point x="1063" y="777"/>
      <point x="1100" y="795"/>
      <point x="1100" y="840" type="curve" smooth="yes"/>
      <point x="1100" y="1122" type="line" smooth="yes"/>
      <point x="1100" y="1168"/>
      <point x="1081" y="1187"/>
      <point x="1035" y="1187" type="curve" smooth="yes"/>
    </contour>
  </outline>
</glyph>
<glyph name="R" format="1">
  <advance width="1228"/>
  <unicode hex="0052"/>
  <outline>
    <contour>
      <point x="123" y="1187" type="line" smooth="yes"/>
      <point x="78" y="1187"/>
      <point x="60" y="1169"/>
      <point x="60" y="1084" type="curve" smooth="yes"/>
      <point x="60" y="999"/>
      <point x="78" y="982"/>
      <point x="123" y="982" type="curve" smooth="yes"/>
      <point x="230" y="982" type="line"/>
      <point x="230" y="205" type="line"/>
      <point x="123" y="205" type="line" smooth="yes"/>
      <point x="78" y="205"/>
      <point x="60" y="187"/>
      <point x="60" y="102" type="curve" smooth="yes"/>
      <point x="60" y="17"/>
      <point x="78" y="0"/>
      <point x="123" y="0" type="curve" smooth="yes"/>
      <point x="577" y="0" type="line" smooth="yes"/>
      <point x="622" y="0"/>
      <point x="640" y="17"/>
      <point x="640" y="102" type="curve" smooth="yes"/>
      <point x="640" y="187"/>
      <point x="622" y="205"/>
      <point x="577" y="205" type="curve" smooth="yes"/>
      <point x="480" y="205" type="line"/>
      <point x="480" y="461" type="line"/>
      <point x="544" y="461" type="line" smooth="yes"/>
      <point x="614" y="461"/>
      <point x="663" y="437"/>
      <point x="704" y="380" type="curve" smooth="yes"/>
      <point x="760" y="302"/>
      <point x="786" y="215"/>
      <point x="830" y="139" type="curve" smooth="yes"/>
      <point x="884" y="42"/>
      <point x="941" y="0"/>
      <point x="1048" y="0" type="curve" smooth="yes"/>
      <point x="1145" y="0" type="line" smooth="yes"/>
      <point x="1190" y="0"/>
      <point x="1208" y="17"/>
      <point x="1208" y="102" type="curve" smooth="yes"/>
      <point x="1208" y="187"/>
      <point x="1190" y="205"/>
      <point x="1145" y="205" type="curve" smooth="yes"/>
      <point x="1126" y="205" type="line" smooth="yes"/>
      <point x="1090" y="205"/>
      <point x="1065" y="231"/>
      <point x="1041" y="271" type="curve" smooth="yes"/>
      <point x="1005" y="331"/>
      <point x="974" y="408"/>
      <point x="925" y="471" type="curve" smooth="yes"/>
      <point x="902" y="500"/>
      <point x="872" y="520"/>
      <point x="839" y="533" type="curve"/>
      <point x="999" y="572"/>
      <point x="1087" y="665"/>
      <point x="1087" y="824" type="curve" smooth="yes"/>
      <point x="1087" y="1061"/>
      <point x="930" y="1187"/>
      <point x="650" y="1187" type="curve" smooth="yes"/>
    </contour>
    <contour>
      <point x="766" y="972"/>
      <point x="829" y="923"/>
      <point x="829" y="824" type="curve" smooth="yes"/>
      <point x="829" y="725"/>
      <point x="766" y="676"/>
      <point x="629" y="676" type="curve" smooth="yes"/>
      <point x="480" y="676" type="line"/>
      <point x="480" y="972" type="line"/>
      <point x="629" y="972" type="line" smooth="yes"/>
    </contour>
  </outline>
</glyph>
<glyph name="Y" format="1">
  <advance width="1228"/>
  <unicode hex="0059"/>
  <outline>
    <contour>
      <point x="751" y="1187" type="line" smooth="yes"/>
      <point x="706" y="1187"/>
      <point x="688" y="1169"/>
      <point x="688" y="1084" type="curve" smooth="yes"/>
      <point x="688" y="999"/>
      <point x="706" y="982"/>
      <point x="751" y="982" type="curve" smooth="yes"/>
      <point x="804" y="982" type="line"/>
      <point x="616" y="690" type="line"/>
      <point x="430" y="982" type="line"/>
      <point x="497" y="982" type="line" smooth="yes"/>
      <point x="542" y="982"/>
      <point x="560" y="999"/>
      <point x="560" y="1084" type="curve" smooth="yes"/>
      <point x="560" y="1169"/>
      <point x="542" y="1187"/>
      <point x="497" y="1187" type="curve" smooth="yes"/>
      <point x="103" y="1187" type="line" smooth="yes"/>
      <point x="58" y="1187"/>
      <point x="40" y="1169"/>
      <point x="40" y="1084" type="curve" smooth="yes"/>
      <point x="40" y="999"/>
      <point x="58" y="982"/>
      <point x="103" y="982" type="curve" smooth="yes"/>
      <point x="149" y="982" type="line"/>
      <point x="489" y="460" type="line"/>
      <point x="489" y="205" type="line"/>
      <point x="293" y="205" type="line" smooth="yes"/>
      <point x="248" y="205"/>
      <point x="230" y="187"/>
      <point x="230" y="102" type="curve" smooth="yes"/>
      <point x="230" y="17"/>
      <point x="248" y="0"/>
      <point x="293" y="0" type="curve" smooth="yes"/>
      <point x="935" y="0" type="line" smooth="yes"/>
      <point x="980" y="0"/>
      <point x="998" y="17"/>
      <point x="998" y="102" type="curve" smooth="yes"/>
      <point x="998" y="187"/>
      <point x="980" y="205"/>
      <point x="935" y="205" type="curve" smooth="yes"/>
      <point x="739" y="205" type="line"/>
      <point x="739" y="459" type="line"/>
      <point x="1081" y="982" type="line"/>
      <point x="1125" y="982" type="line" smooth="yes"/>
      <point x="1170" y="982"/>
      <point x="1188" y="999"/>
      <point x="1188" y="1084" type="curve" smooth="yes"/>
      <point x="1188" y="1169"/>
      <point x="1170" y="1187"/>
      <point x="1125" y="1187" type="curve" smooth="yes"/>
    </contour>
  </outline>
</glyph>
<glyph name="bracketright" format="1">
  <advance width="1228"/>
  <unicode hex="005D"/>
  <outline>
    <contour>
      <point x="688" y="1372" type="line"/>
      <point x="688" y="-333" type="line"/>
      <point x="875" y="-333" type="line" smooth="yes"/>
      <point x="920" y="-333"/>
      <point x="938" y="-315"/>
      <point x="938" y="-270" type="curve" smooth="yes"/>
      <point x="938" y="1309" type="line" smooth="yes"/>
      <point x="938" y="1354"/>
      <point x="920" y="1372"/>
      <point x="875" y="1372" type="curve" smooth="yes"/>
    </contour>
    <contour>
      <point x="365" y="-108" type="line" smooth="yes"/>
      <point x="320" y="-108"/>
      <point x="302" y="-131"/>
      <point x="302" y="-221" type="curve" smooth="yes"/>
      <point x="302" y="-311"/>
      <point x="320" y="-333"/>
      <point x="365" y="-333" type="curve" smooth="yes"/>
      <point x="779" y="-333" type="line"/>
      <point x="779" y="-108" type="line"/>
    </contour>
    <contour>
      <point x="365" y="1372" type="line" smooth="yes"/>
      <point x="320" y="1372"/>
      <point x="302" y="1349"/>
      <point x="302" y="1259" type="curve" smooth="yes"/>
      <point x="302" y="1169"/>
      <point x="320" y="1147"/>
      <point x="365" y="1147" type="curve" smooth="yes"/>
      <point x="779" y="1147" type="line"/>
      <point x="779" y="1372" type="line"/>
    </contour>
  </outline>
</glyph>
<glyph name="asciicircum" format="1">
  <advance width="1228"/>
  <unicode hex="005E"/>
  <outline>
    <contour>
      <point x="555" y="1209"/>
      <point x="528" y="1196"/>
      <point x="516" y="1172" type="curve" smooth="yes"/>
      <point x="198" y="562" type="line" smooth="yes"/>
      <point x="177" y="522"/>
      <point x="228" y="490"/>
      <point x="288" y="476" type="curve" smooth="yes"/>
      <point x="346" y="462"/>
      <point x="412" y="466"/>
      <point x="427" y="497" type="curve" smooth="yes"/>
      <point x="614" y="887" type="line"/>
      <point x="801" y="497" type="line" smooth="yes"/>
      <point x="816" y="466"/>
      <point x="882" y="462"/>
      <point x="940" y="476" type="curve" smooth="yes"/>
      <point x="1000" y="490"/>
      <point x="1051" y="522"/>
      <point x="1030" y="562" type="curve" smooth="yes"/>
      <point x="712" y="1172" type="line" smooth="yes"/>
      <point x="700" y="1196"/>
      <point x="672" y="1209"/>
      <point x="614" y="1209" type="curve" smooth="yes"/>
    </contour>
  </outline>
</glyph>
<glyph name="grave" format="1">
  <advance width="1228"/>
  <unicode hex="0060"/>
  <outline>
    <contour>
      <point x="367" y="1414"/>
      <point x="324" y="1392"/>
      <point x="284" y="1301" type="curve" smooth="yes"/>
      <point x="244" y="1209"/>
      <point x="253" y="1167"/>
      <point x="287" y="1158" type="curve" smooth="yes"/>
      <point x="767" y="1033" type="line" smooth="yes"/>
      <point x="799" y="1024"/>
      <point x="824" y="1042"/>
      <point x="835" y="1072" type="curve" smooth="yes"/>
      <point x="846" y="1101"/>
      <point x="838" y="1129"/>
      <point x="812" y="1145" type="curve" smooth="yes"/>
      <point x="404" y="1392" type="line"/>
    </contour>
  </outline>
</glyph>
<glyph name="c" format="1">
  <advance width="1228"/>
  <unicode hex="0063"/>
  <outline>
    <contour>
      <point x="870" y="946"/>
      <point x="833" y="928"/>
      <point x="833" y="883" type="curve" smooth="yes"/>
      <point x="833" y="829" type="line"/>
      <point x="787" y="909"/>
      <point x="711" y="946"/>
      <point x="604" y="946" type="curve" smooth="yes"/>
      <point x="335" y="946"/>
      <point x="127" y="747"/>
      <point x="127" y="462" type="curve" smooth="yes"/>
      <point x="127" y="182"/>
      <point x="325" y="-22"/>
      <point x="634" y="-22" type="curve" smooth="yes"/>
      <point x="776" y="-22"/>
      <point x="916" y="22"/>
      <point x="1035" y="88" type="curve" smooth="yes"/>
      <point x="1077" y="111"/>
      <point x="1093" y="151"/>
      <point x="1060" y="230" type="curve" smooth="yes"/>
      <point x="1027" y="308"/>
      <point x="987" y="322"/>
      <point x="948" y="299" type="curve" smooth="yes"/>
      <point x="850" y="242"/>
      <point x="740" y="205"/>
      <point x="634" y="205" type="curve" smooth="yes"/>
      <point x="489" y="205"/>
      <point x="395" y="306"/>
      <point x="395" y="462" type="curve" smooth="yes"/>
      <point x="395" y="618"/>
      <point x="489" y="719"/>
      <point x="634" y="719" type="curve" smooth="yes"/>
      <point x="753" y="719"/>
      <point x="813" y="644"/>
      <point x="813" y="562" type="curve" smooth="yes"/>
      <point x="813" y="517"/>
      <point x="836" y="499"/>
      <point x="931" y="499" type="curve" smooth="yes"/>
      <point x="1026" y="499"/>
      <point x="1063" y="517"/>
      <point x="1063" y="562" type="curve" smooth="yes"/>
      <point x="1063" y="883" type="line" smooth="yes"/>
      <point x="1063" y="928"/>
      <point x="1040" y="946"/>
      <point x="955" y="946" type="curve" smooth="yes"/>
    </contour>
  </outline>
</glyph>
<glyph name="e" format="1">
  <advance width="1228"/>
  <unicode hex="0065"/>
  <outline>
    <contour>
      <point x="319" y="946"/>
      <point x="131" y="742"/>
      <point x="131" y="462" type="curve" smooth="yes"/>
      <point x="131" y="182"/>
      <point x="299" y="-22"/>
      <point x="598" y="-22" type="curve" smooth="yes"/>
      <point x="741" y="-22"/>
      <point x="893" y="5"/>
      <point x="1026" y="49" type="curve" smooth="yes"/>
      <point x="1074" y="65"/>
      <point x="1087" y="94"/>
      <point x="1065" y="176" type="curve" smooth="yes"/>
      <point x="1043" y="258"/>
      <point x="1017" y="273"/>
      <point x="974" y="260" type="curve" smooth="yes"/>
      <point x="842" y="220"/>
      <point x="726" y="205"/>
      <point x="618" y="205" type="curve" smooth="yes"/>
      <point x="501" y="205"/>
      <point x="424" y="262"/>
      <point x="398" y="370" type="curve"/>
      <point x="1040" y="370" type="line" smooth="yes"/>
      <point x="1085" y="370"/>
      <point x="1103" y="387"/>
      <point x="1103" y="432" type="curve" smooth="yes"/>
      <point x="1103" y="729"/>
      <point x="940" y="946"/>
      <point x="628" y="946" type="curve" smooth="yes"/>
    </contour>
    <contour>
      <point x="743" y="719"/>
      <point x="820" y="661"/>
      <point x="842" y="565" type="curve"/>
      <point x="402" y="565" type="line"/>
      <point x="431" y="669"/>
      <point x="508" y="719"/>
      <point x="628" y="719" type="curve" smooth="yes"/>
    </contour>
  </outline>
</glyph>
<glyph name="m" format="1">
  <advance width="1228"/>
  <unicode hex="006D"/>
  <outline>
    <contour>
      <point x="872" y="946"/>
      <point x="789" y="878"/>
      <point x="727" y="743" type="curve"/>
      <point x="700" y="871"/>
      <point x="640" y="946"/>
      <point x="536" y="946" type="curve" smooth="yes"/>
      <point x="436" y="946"/>
      <point x="349" y="869"/>
      <point x="286" y="717" type="curve"/>
      <point x="286" y="861" type="line" smooth="yes"/>
      <point x="286" y="906"/>
      <point x="268" y="924"/>
      <point x="223" y="924" type="curve" smooth="yes"/>
      <point x="49" y="924" type="line" smooth="yes"/>
      <point x="4" y="924"/>
      <point x="-14" y="906"/>
      <point x="-14" y="821" type="curve" smooth="yes"/>
      <point x="-14" y="736"/>
      <point x="4" y="719"/>
      <point x="49" y="719" type="curve" smooth="yes"/>
      <point x="106" y="719" type="line"/>
      <point x="106" y="63" type="line" smooth="yes"/>
      <point x="106" y="18"/>
      <point x="124" y="0"/>
      <point x="169" y="0" type="curve" smooth="yes"/>
      <point x="293" y="0" type="line" smooth="yes"/>
      <point x="338" y="0"/>
      <point x="356" y="18"/>
      <point x="356" y="63" type="curve" smooth="yes"/>
      <point x="356" y="403" type="line" smooth="yes"/>
      <point x="356" y="595"/>
      <point x="397" y="689"/>
      <point x="458" y="689" type="curve" smooth="yes"/>
      <point x="495" y="689"/>
      <point x="510" y="655"/>
      <point x="510" y="586" type="curve" smooth="yes"/>
      <point x="510" y="63" type="line" smooth="yes"/>
      <point x="510" y="18"/>
      <point x="528" y="0"/>
      <point x="573" y="0" type="curve" smooth="yes"/>
      <point x="697" y="0" type="line" smooth="yes"/>
      <point x="742" y="0"/>
      <point x="760" y="18"/>
      <point x="760" y="63" type="curve" smooth="yes"/>
      <point x="760" y="403" type="line" smooth="yes"/>
      <point x="760" y="595"/>
      <point x="801" y="689"/>
      <point x="862" y="689" type="curve" smooth="yes"/>
      <point x="899" y="689"/>
      <point x="914" y="655"/>
      <point x="914" y="586" type="curve" smooth="yes"/>
      <point x="914" y="63" type="line" smooth="yes"/>
      <point x="914" y="18"/>
      <point x="932" y="0"/>
      <point x="977" y="0" type="curve" smooth="yes"/>
      <point x="1101" y="0" type="line" smooth="yes"/>
      <point x="1146" y="0"/>
      <point x="1164" y="18"/>
      <point x="1164" y="63" type="curve" smooth="yes"/>
      <point x="1164" y="643" type="line" smooth="yes"/>
      <point x="1164" y="855"/>
      <point x="1083" y="946"/>
      <point x="966" y="946" type="curve" smooth="yes"/>
    </contour>
    <contour>
      <point x="173" y="205" type="line" smooth="yes"/>
      <point x="128" y="205"/>
      <point x="110" y="187"/>
      <point x="110" y="102" type="curve" smooth="yes"/>
      <point x="110" y="17"/>
      <point x="128" y="0"/>
      <point x="173" y="0" type="curve" smooth="yes"/>
      <point x="289" y="0" type="line" smooth="yes"/>
      <point x="334" y="0"/>
      <point x="352" y="17"/>
      <point x="352" y="102" type="curve" smooth="yes"/>
      <point x="352" y="187"/>
      <point x="334" y="205"/>
      <point x="289" y="205" type="curve" smooth="yes"/>
    </contour>
    <contour>
      <point x="607" y="205" type="line"/>
      <point x="607" y="0" type="line"/>
      <point x="693" y="0" type="line" smooth="yes"/>
      <point x="738" y="0"/>
      <point x="756" y="17"/>
      <point x="756" y="102" type="curve" smooth="yes"/>
      <point x="756" y="187"/>
      <point x="738" y="205"/>
      <point x="693" y="205" type="curve" smooth="yes"/>
    </contour>
    <contour>
      <point x="1011" y="205" type="line"/>
      <point x="1011" y="0" type="line"/>
      <point x="1097" y="0" type="line" smooth="yes"/>
      <point x="1142" y="0"/>
      <point x="1160" y="17"/>
      <point x="1160" y="102" type="curve" smooth="yes"/>
      <point x="1160" y="187"/>
      <point x="1142" y="205"/>
      <point x="1097" y="205" type="curve" smooth="yes"/>
    </contour>
  </outline>
</glyph>
<glyph name="z" format="1">
  <advance width="1228"/>
  <unicode hex="007A"/>
  <outline>
    <contour>
      <point x="223" y="924" type="line" smooth="yes"/>
      <point x="177" y="924"/>
      <point x="158" y="905"/>
      <point x="158" y="859" type="curve" smooth="yes"/>
      <point x="158" y="605" type="line" smooth="yes"/>
      <point x="158" y="560"/>
      <point x="171" y="542"/>
      <point x="266" y="542" type="curve" smooth="yes"/>
      <point x="361" y="542"/>
      <point x="388" y="560"/>
      <point x="388" y="605" type="curve" smooth="yes"/>
      <point x="388" y="719" type="line"/>
      <point x="693" y="719" type="line"/>
      <point x="170" y="184" type="line" smooth="yes"/>
      <point x="146" y="159"/>
      <point x="138" y="138"/>
      <point x="138" y="102" type="curve" smooth="yes"/>
      <point x="138" y="17"/>
      <point x="156" y="0"/>
      <point x="201" y="0" type="curve" smooth="yes"/>
      <point x="1015" y="0" type="line" smooth="yes"/>
      <point x="1061" y="0"/>
      <point x="1080" y="19"/>
      <point x="1080" y="65" type="curve" smooth="yes"/>
      <point x="1080" y="329" type="line" smooth="yes"/>
      <point x="1080" y="374"/>
      <point x="1067" y="392"/>
      <point x="972" y="392" type="curve" smooth="yes"/>
      <point x="877" y="392"/>
      <point x="850" y="374"/>
      <point x="850" y="329" type="curve" smooth="yes"/>
      <point x="850" y="205" type="line"/>
      <point x="525" y="205" type="line"/>
      <point x="1048" y="740" type="line" smooth="yes"/>
      <point x="1072" y="765"/>
      <point x="1080" y="786"/>
      <point x="1080" y="822" type="curve" smooth="yes"/>
      <point x="1080" y="907"/>
      <point x="1062" y="924"/>
      <point x="1017" y="924" type="curve" smooth="yes"/>
    </contour>
  </outline>
</glyph>
<glyph name="braceleft" format="1">
  <advance width="1228"/>
  <unicode hex="007B"/>
  <outline>
    <contour>
      <point x="575" y="1372"/>
      <point x="418" y="1241"/>
      <point x="444" y="959" type="curve" smooth="yes"/>
      <point x="454" y="850" type="line" smooth="yes"/>
      <point x="466" y="723"/>
      <point x="390" y="648"/>
      <point x="228" y="648" type="curve" smooth="yes"/>
      <point x="183" y="648"/>
      <point x="165" y="631"/>
      <point x="165" y="542" type="curve" smooth="yes"/>
      <point x="165" y="453"/>
      <point x="183" y="435"/>
      <point x="228" y="435" type="curve" smooth="yes"/>
      <point x="390" y="435"/>
      <point x="470" y="361"/>
      <point x="458" y="233" type="curve" smooth="yes"/>
      <point x="445" y="90" type="line" smooth="yes"/>
      <point x="419" y="-201"/>
      <point x="575" y="-333"/>
      <point x="935" y="-333" type="curve" smooth="yes"/>
      <point x="980" y="-333"/>
      <point x="998" y="-312"/>
      <point x="998" y="-227" type="curve" smooth="yes"/>
      <point x="998" y="-134"/>
      <point x="980" y="-120"/>
      <point x="935" y="-120" type="curve" smooth="yes"/>
      <point x="738" y="-120"/>
      <point x="683" y="-54"/>
      <point x="694" y="102" type="curve" smooth="yes"/>
      <point x="703" y="233" type="line" smooth="yes"/>
      <point x="713" y="379"/>
      <point x="652" y="486"/>
      <point x="470" y="537" type="curve"/>
      <point x="470" y="547" type="line"/>
      <point x="652" y="598"/>
      <point x="708" y="704"/>
      <point x="700" y="850" type="curve" smooth="yes"/>
      <point x="695" y="947" type="line" smooth="yes"/>
      <point x="687" y="1097"/>
      <point x="738" y="1159"/>
      <point x="935" y="1159" type="curve" smooth="yes"/>
      <point x="980" y="1159"/>
      <point x="998" y="1174"/>
      <point x="998" y="1267" type="curve" smooth="yes"/>
      <point x="998" y="1352"/>
      <point x="980" y="1372"/>
      <point x="935" y="1372" type="curve" smooth="yes"/>
    </contour>
  </outline>
</glyph>
<glyph name="brokenbar" format="1">
  <advance width="1228"/>
  <unicode hex="00A6"/>
  <outline>
    <contour>
      <point x="536" y="1394"/>
      <point x="489" y="1376"/>
      <point x="489" y="1331" type="curve" smooth="yes"/>
      <point x="489" y="708" type="line" smooth="yes"/>
      <point x="489" y="663"/>
      <point x="522" y="645"/>
      <point x="607" y="645" type="curve" smooth="yes"/>
      <point x="692" y="645"/>
      <point x="739" y="663"/>
      <point x="739" y="708" type="curve" smooth="yes"/>
      <point x="739" y="1331" type="line" smooth="yes"/>
      <point x="739" y="1376"/>
      <point x="706" y="1394"/>
      <point x="621" y="1394" type="curve" smooth="yes"/>
    </contour>
    <contour>
      <point x="536" y="394"/>
      <point x="489" y="376"/>
      <point x="489" y="331" type="curve" smooth="yes"/>
      <point x="489" y="-292" type="line" smooth="yes"/>
      <point x="489" y="-337"/>
      <point x="522" y="-355"/>
      <point x="607" y="-355" type="curve" smooth="yes"/>
      <point x="692" y="-355"/>
      <point x="739" y="-337"/>
      <point x="739" y="-292" type="curve" smooth="yes"/>
      <point x="739" y="331" type="line" smooth="yes"/>
      <point x="739" y="376"/>
      <point x="706" y="394"/>
      <point x="621" y="394" type="curve" smooth="yes"/>
    </contour>
  </outline>
</glyph>
<glyph name="dieresis" format="1">
  <advance width="1228"/>
  <unicode hex="00A8"/>
  <outline>
    <contour>
      <point x="736" y="1363"/>
      <point x="709" y="1345"/>
      <point x="709" y="1300" type="curve" smooth="yes"/>
      <point x="709" y="1136" type="line" smooth="yes"/>
      <point x="709" y="1091"/>
      <point x="741" y="1073"/>
      <point x="836" y="1073" type="curve" smooth="yes"/>
      <point x="931" y="1073"/>
      <point x="959" y="1091"/>
      <point x="959" y="1136" type="curve" smooth="yes"/>
      <point x="959" y="1300" type="line" smooth="yes"/>
      <point x="959" y="1345"/>
      <point x="926" y="1363"/>
      <point x="831" y="1363" type="curve" smooth="yes"/>
    </contour>
    <contour>
      <point x="296" y="1363"/>
      <point x="269" y="1345"/>
      <point x="269" y="1300" type="curve" smooth="yes"/>
      <point x="269" y="1136" type="line" smooth="yes"/>
      <point x="269" y="1091"/>
      <point x="301" y="1073"/>
      <point x="396" y="1073" type="curve" smooth="yes"/>
      <point x="491" y="1073"/>
      <point x="519" y="1091"/>
      <point x="519" y="1136" type="curve" smooth="yes"/>
      <point x="519" y="1300" type="line" smooth="yes"/>
      <point x="519" y="1345"/>
      <point x="486" y="1363"/>
      <point x="391" y="1363" type="curve" smooth="yes"/>
    </contour>
  </outline>
</glyph>
<glyph name="registered" format="1">
  <advance width="1228"/>
  <unicode hex="00AE"/>
  <outline>
    <contour>
      <point x="330" y="1334"/>
      <point x="125" y="1113"/>
      <point x="125" y="822" type="curve" smooth="yes"/>
      <point x="125" y="530"/>
      <point x="330" y="308"/>
      <point x="613" y="308" type="curve" smooth="yes"/>
      <point x="896" y="308"/>
      <point x="1101" y="530"/>
      <point x="1101" y="822" type="curve" smooth="yes"/>
      <point x="1101" y="1113"/>
      <point x="896" y="1334"/>
      <point x="613" y="1334" type="curve" smooth="yes"/>
    </contour>
    <contour>
      <point x="832" y="1206"/>
      <point x="973" y="1041"/>
      <point x="973" y="822" type="curve" smooth="yes"/>
      <point x="973" y="602"/>
      <point x="832" y="436"/>
      <point x="613" y="436" type="curve" smooth="yes"/>
      <point x="394" y="436"/>
      <point x="253" y="602"/>
      <point x="253" y="822" type="curve" smooth="yes"/>
      <point x="253" y="1041"/>
      <point x="394" y="1206"/>
      <point x="613" y="1206" type="curve" smooth="yes"/>
    </contour>
    <contour>
      <point x="460" y="1091" type="line" smooth="yes"/>
      <point x="422" y="1091"/>
      <point x="407" y="1076"/>
      <point x="407" y="1038" type="curve" smooth="yes"/>
      <point x="407" y="606" type="line" smooth="yes"/>
      <point x="407" y="567"/>
      <point x="419" y="552"/>
      <point x="478" y="552" type="curve" smooth="yes"/>
      <point x="537" y="552"/>
      <point x="549" y="567"/>
      <point x="549" y="606" type="curve" smooth="yes"/>
      <point x="549" y="696" type="line"/>
      <point x="611" y="696" type="line"/>
      <point x="710" y="568" type="line" smooth="yes"/>
      <point x="733" y="538"/>
      <point x="756" y="537"/>
      <point x="801" y="568" type="curve" smooth="yes"/>
      <point x="846" y="599"/>
      <point x="846" y="622"/>
      <point x="821" y="652" type="curve" smooth="yes"/>
      <point x="757" y="725" type="line"/>
      <point x="822" y="756"/>
      <point x="858" y="814"/>
      <point x="858" y="889" type="curve" smooth="yes"/>
      <point x="858" y="997"/>
      <point x="780" y="1091"/>
      <point x="656" y="1091" type="curve" smooth="yes"/>
    </contour>
    <contour>
      <point x="683" y="953"/>
      <point x="710" y="927"/>
      <point x="710" y="889" type="curve" smooth="yes"/>
      <point x="710" y="849"/>
      <point x="681" y="825"/>
      <point x="631" y="825" type="curve" smooth="yes"/>
      <point x="549" y="825" type="line"/>
      <point x="549" y="953" type="line"/>
      <point x="639" y="953" type="line" smooth="yes"/>
    </contour>
  </outline>
</glyph>
<glyph name="acute" format="1">
  <advance width="1228"/>
  <unicode hex="00B4"/>
  <outline>
    <contour>
      <point x="416" y="1145" type="line" smooth="yes"/>
      <point x="390" y="1129"/>
      <point x="382" y="1101"/>
      <point x="393" y="1072" type="curve" smooth="yes"/>
      <point x="404" y="1042"/>
      <point x="429" y="1024"/>
      <point x="461" y="1033" type="curve" smooth="yes"/>
      <point x="941" y="1158" type="line" smooth="yes"/>
      <point x="975" y="1167"/>
      <point x="984" y="1209"/>
      <point x="944" y="1301" type="curve" smooth="yes"/>
      <point x="904" y="1392"/>
      <point x="861" y="1414"/>
      <point x="824" y="1392" type="curve" smooth="yes"/>
    </contour>
  </outline>
</glyph>
<glyph name="paragraph" format="1">
  <advance width="1228"/>
  <unicode hex="00B6"/>
  <outline>
    <contour>
      <point x="519" y="1187" type="line" smooth="yes"/>
      <point x="273" y="1187"/>
      <point x="101" y="1047"/>
      <point x="101" y="809" type="curve" smooth="yes"/>
      <point x="101" y="603"/>
      <point x="232" y="470"/>
      <point x="429" y="440" type="curve"/>
      <point x="429" y="-347" type="line" smooth="yes"/>
      <point x="429" y="-392"/>
      <point x="452" y="-410"/>
      <point x="527" y="-410" type="curve" smooth="yes"/>
      <point x="602" y="-410"/>
      <point x="639" y="-392"/>
      <point x="639" y="-347" type="curve" smooth="yes"/>
      <point x="639" y="982" type="line"/>
      <point x="799" y="982" type="line"/>
      <point x="799" y="-347" type="line" smooth="yes"/>
      <point x="799" y="-392"/>
      <point x="822" y="-410"/>
      <point x="897" y="-410" type="curve" smooth="yes"/>
      <point x="972" y="-410"/>
      <point x="1009" y="-392"/>
      <point x="1009" y="-347" type="curve" smooth="yes"/>
      <point x="1009" y="982" type="line"/>
      <point x="1075" y="982" type="line" smooth="yes"/>
      <point x="1120" y="982"/>
      <point x="1138" y="999"/>
      <point x="1138" y="1084" type="curve" smooth="yes"/>
      <point x="1138" y="1169"/>
      <point x="1120" y="1187"/>
      <point x="1075" y="1187" type="curve" smooth="yes"/>
    </contour>
  </outline>
</glyph>
<glyph name="onesuperior" format="1">
  <advance width="1228"/>
  <unicode hex="00B9"/>
  <outline>
    <contour>
      <point x="326" y="1178" type="line" smooth="yes"/>
      <point x="286" y="1159"/>
      <point x="285" y="1124"/>
      <point x="309" y="1072" type="curve" smooth="yes"/>
      <point x="338" y="1010"/>
      <point x="369" y="1004"/>
      <point x="403" y="1022" type="curve" smooth="yes"/>
      <point x="659" y="1154" type="line"/>
      <point x="542" y="1220" type="line"/>
      <point x="542" y="653" type="line"/>
      <point x="354" y="653" type="line" smooth="yes"/>
      <point x="317" y="653"/>
      <point x="303" y="627"/>
      <point x="303" y="568" type="curve" smooth="yes"/>
      <point x="303" y="508"/>
      <point x="316" y="483"/>
      <point x="354" y="483" type="curve" smooth="yes"/>
      <point x="918" y="483" type="line" smooth="yes"/>
      <point x="955" y="483"/>
      <point x="970" y="508"/>
      <point x="970" y="568" type="curve" smooth="yes"/>
      <point x="970" y="627"/>
      <point x="955" y="653"/>
      <point x="918" y="653" type="curve" smooth="yes"/>
      <point x="737" y="653" type="line"/>
      <point x="737" y="1275" type="line" smooth="yes"/>
      <point x="737" y="1330"/>
      <point x="675" y="1346"/>
      <point x="634" y="1326" type="curve" smooth="yes"/>
    </contour>
  </outline>
</glyph>
<glyph name="onehalf" format="1">
  <advance width="1228"/>
  <unicode hex="00BD"/>
  <outline>
    <contour>
      <point x="11" y="1300" type="line" smooth="yes"/>
      <point x="-25" y="1288"/>
      <point x="-30" y="1260"/>
      <point x="-15" y="1214" type="curve" smooth="yes"/>
      <point x="2" y="1160"/>
      <point x="26" y="1153"/>
      <point x="56" y="1163" type="curve" smooth="yes"/>
      <point x="188" y="1206" type="line"/>
      <point x="188" y="826" type="line"/>
      <point x="31" y="826" type="line" smooth="yes"/>
      <point x="0" y="826"/>
      <point x="-12" y="805"/>
      <point x="-12" y="755" type="curve" smooth="yes"/>
      <point x="-12" y="705"/>
      <point x="-1" y="684"/>
      <point x="31" y="684" type="curve" smooth="yes"/>
      <point x="502" y="684" type="line" smooth="yes"/>
      <point x="532" y="684"/>
      <point x="545" y="705"/>
      <point x="545" y="755" type="curve" smooth="yes"/>
      <point x="545" y="805"/>
      <point x="532" y="826"/>
      <point x="502" y="826" type="curve" smooth="yes"/>
      <point x="350" y="826" type="line"/>
      <point x="350" y="1346" type="line" smooth="yes"/>
      <point x="350" y="1392"/>
      <point x="316" y="1403"/>
      <point x="280" y="1391" type="curve" smooth="yes"/>
    </contour>
    <contour>
      <point x="878" y="494"/>
      <point x="783" y="475"/>
      <point x="709" y="436" type="curve" smooth="yes"/>
      <point x="692" y="427"/>
      <point x="683" y="415"/>
      <point x="683" y="399" type="curve" smooth="yes"/>
      <point x="683" y="254" type="line" smooth="yes"/>
      <point x="683" y="228"/>
      <point x="707" y="214"/>
      <point x="766" y="214" type="curve" smooth="yes"/>
      <point x="824" y="214"/>
      <point x="838" y="228"/>
      <point x="838" y="254" type="curve" smooth="yes"/>
      <point x="838" y="328" type="line"/>
      <point x="870" y="342"/>
      <point x="911" y="349"/>
      <point x="948" y="349" type="curve" smooth="yes"/>
      <point x="1010" y="349"/>
      <point x="1046" y="316"/>
      <point x="1046" y="263" type="curve" smooth="yes"/>
      <point x="1046" y="220"/>
      <point x="1015" y="186"/>
      <point x="955" y="142" type="curve" smooth="yes"/>
      <point x="682" y="-70" type="line" smooth="yes"/>
      <point x="668" y="-81"/>
      <point x="659" y="-100"/>
      <point x="659" y="-133" type="curve" smooth="yes"/>
      <point x="659" y="-192"/>
      <point x="676" y="-217"/>
      <point x="703" y="-217" type="curve" smooth="yes"/>
      <point x="1208" y="-217" type="line" smooth="yes"/>
      <point x="1236" y="-217"/>
      <point x="1247" y="-206"/>
      <point x="1247" y="-178" type="curve" smooth="yes"/>
      <point x="1247" y="-36" type="line" smooth="yes"/>
      <point x="1247" y="-10"/>
      <point x="1223" y="4"/>
      <point x="1164" y="4" type="curve" smooth="yes"/>
      <point x="1106" y="4"/>
      <point x="1092" y="-10"/>
      <point x="1092" y="-36" type="curve" smooth="yes"/>
      <point x="1092" y="-75" type="line"/>
      <point x="894" y="-75" type="line"/>
      <point x="1059" y="45" type="line" smooth="yes"/>
      <point x="1152" y="112"/>
      <point x="1214" y="179"/>
      <point x="1214" y="271" type="curve" smooth="yes"/>
      <point x="1214" y="403"/>
      <point x="1126" y="494"/>
      <point x="961" y="494" type="curve" smooth="yes"/>
    </contour>
    <contour>
      <point x="105" y="369" type="line" smooth="yes"/>
      <point x="77" y="353"/>
      <point x="79" y="326"/>
      <point x="109" y="280" type="curve" smooth="yes"/>
      <point x="139" y="234"/>
      <point x="162" y="228"/>
      <point x="185" y="240" type="curve" smooth="yes"/>
      <point x="1122" y="761" type="line" smooth="yes"/>
      <point x="1150" y="777"/>
      <point x="1148" y="804"/>
      <point x="1118" y="850" type="curve" smooth="yes"/>
      <point x="1088" y="896"/>
      <point x="1065" y="902"/>
      <point x="1042" y="890" type="curve" smooth="yes"/>
    </contour>
  </outline>
</glyph>
<glyph name="threequarters" format="1">
  <advance width="1228"/>
  <unicode hex="00BE"/>
  <outline>
    <contour>
      <point x="185" y="1394"/>
      <point x="93" y="1376"/>
      <point x="22" y="1345" type="curve" smooth="yes"/>
      <point x="4" y="1337"/>
      <point x="-4" y="1324"/>
      <point x="-4" y="1307" type="curve" smooth="yes"/>
      <point x="-4" y="1179" type="line" smooth="yes"/>
      <point x="-4" y="1153"/>
      <point x="20" y="1139"/>
      <point x="78" y="1139" type="curve" smooth="yes"/>
      <point x="137" y="1139"/>
      <point x="150" y="1153"/>
      <point x="150" y="1179" type="curve" smooth="yes"/>
      <point x="150" y="1228" type="line"/>
      <point x="189" y="1242"/>
      <point x="229" y="1249"/>
      <point x="264" y="1249" type="curve" smooth="yes"/>
      <point x="337" y="1249"/>
      <point x="375" y="1222"/>
      <point x="375" y="1177" type="curve" smooth="yes"/>
      <point x="375" y="1128"/>
      <point x="341" y="1101"/>
      <point x="271" y="1101" type="curve" smooth="yes"/>
      <point x="210" y="1101" type="line" smooth="yes"/>
      <point x="184" y="1101"/>
      <point x="169" y="1082"/>
      <point x="169" y="1029" type="curve" smooth="yes"/>
      <point x="169" y="976"/>
      <point x="184" y="957"/>
      <point x="210" y="957" type="curve" smooth="yes"/>
      <point x="287" y="957" type="line" smooth="yes"/>
      <point x="346" y="957"/>
      <point x="377" y="932"/>
      <point x="377" y="885" type="curve" smooth="yes"/>
      <point x="377" y="840"/>
      <point x="341" y="813"/>
      <point x="253" y="813" type="curve" smooth="yes"/>
      <point x="190" y="813"/>
      <point x="116" y="833"/>
      <point x="59" y="856" type="curve" smooth="yes"/>
      <point x="38" y="864"/>
      <point x="16" y="845"/>
      <point x="-1" y="800" type="curve" smooth="yes"/>
      <point x="-18" y="754"/>
      <point x="-9" y="725"/>
      <point x="19" y="713" type="curve" smooth="yes"/>
      <point x="82" y="687"/>
      <point x="178" y="668"/>
      <point x="261" y="668" type="curve" smooth="yes"/>
      <point x="444" y="668"/>
      <point x="554" y="738"/>
      <point x="554" y="880" type="curve" smooth="yes"/>
      <point x="554" y="957"/>
      <point x="512" y="1011"/>
      <point x="442" y="1037" type="curve"/>
      <point x="504" y="1067"/>
      <point x="544" y="1113"/>
      <point x="544" y="1185" type="curve" smooth="yes"/>
      <point x="544" y="1315"/>
      <point x="449" y="1394"/>
      <point x="276" y="1394" type="curve" smooth="yes"/>
    </contour>
    <contour>
      <point x="995" y="499"/>
      <point x="969" y="486"/>
      <point x="951" y="463" type="curve" smooth="yes"/>
      <point x="641" y="85" type="line" smooth="yes"/>
      <point x="631" y="71"/>
      <point x="627" y="60"/>
      <point x="627" y="40" type="curve" smooth="yes"/>
      <point x="627" y="-6"/>
      <point x="655" y="-60"/>
      <point x="680" y="-60" type="curve" smooth="yes"/>
      <point x="970" y="-60" type="line"/>
      <point x="970" y="-178" type="line" smooth="yes"/>
      <point x="970" y="-204"/>
      <point x="995" y="-218"/>
      <point x="1060" y="-218" type="curve" smooth="yes"/>
      <point x="1119" y="-218"/>
      <point x="1133" y="-204"/>
      <point x="1133" y="-178" type="curve" smooth="yes"/>
      <point x="1133" y="-60" type="line"/>
      <point x="1208" y="-60" type="line" smooth="yes"/>
      <point x="1238" y="-60"/>
      <point x="1251" y="-39"/>
      <point x="1251" y="10" type="curve" smooth="yes"/>
      <point x="1251" y="59"/>
      <point x="1238" y="81"/>
      <point x="1208" y="81" type="curve" smooth="yes"/>
      <point x="1133" y="81" type="line"/>
      <point x="1133" y="452" type="line" smooth="yes"/>
      <point x="1133" y="481"/>
      <point x="1104" y="499"/>
      <point x="1043" y="499" type="curve" smooth="yes"/>
    </contour>
    <contour>
      <point x="970" y="81" type="line"/>
      <point x="820" y="81" type="line"/>
      <point x="975" y="280" type="line"/>
    </contour>
    <contour>
      <point x="105" y="329" type="line" smooth="yes"/>
      <point x="77" y="313"/>
      <point x="79" y="286"/>
      <point x="109" y="240" type="curve" smooth="yes"/>
      <point x="139" y="194"/>
      <point x="162" y="188"/>
      <point x="185" y="200" type="curve" smooth="yes"/>
      <point x="1122" y="721" type="line" smooth="yes"/>
      <point x="1150" y="737"/>
      <point x="1148" y="764"/>
      <point x="1118" y="810" type="curve" smooth="yes"/>
      <point x="1088" y="856"/>
      <point x="1065" y="862"/>
      <point x="1042" y="850" type="curve" smooth="yes"/>
    </contour>
  </outline>
</glyph>
<glyph name="Eth" format="1">
  <advance width="1228"/>
  <unicode hex="00D0"/>
  <outline>
    <contour>
      <point x="103" y="719" type="line" smooth="yes"/>
      <point x="58" y="719"/>
      <point x="40" y="701"/>
      <point x="40" y="606" type="curve" smooth="yes"/>
      <point x="40" y="511"/>
      <point x="58" y="494"/>
      <point x="103" y="494" type="curve" smooth="yes"/>
      <point x="605" y="494" type="line" smooth="yes"/>
      <point x="650" y="494"/>
      <point x="668" y="511"/>
      <point x="668" y="606" type="curve" smooth="yes"/>
      <point x="668" y="701"/>
      <point x="650" y="719"/>
      <point x="605" y="719" type="curve" smooth="yes"/>
    </contour>
    <component base="D"/>
  </outline>
</glyph>
<glyph name="ae" format="1">
  <advance width="1228"/>
  <unicode hex="00E6"/>
  <outline>
    <contour>
      <point x="761" y="946"/>
      <point x="687" y="912"/>
      <point x="634" y="852" type="curve"/>
      <point x="583" y="911"/>
      <point x="506" y="946"/>
      <point x="393" y="946" type="curve" smooth="yes"/>
      <point x="288" y="946"/>
      <point x="183" y="919"/>
      <point x="96" y="868" type="curve" smooth="yes"/>
      <point x="53" y="843"/>
      <point x="50" y="799"/>
      <point x="78" y="738" type="curve" smooth="yes"/>
      <point x="111" y="666"/>
      <point x="148" y="646"/>
      <point x="189" y="667" type="curve" smooth="yes"/>
      <point x="246" y="696"/>
      <point x="303" y="719"/>
      <point x="365" y="719" type="curve" smooth="yes"/>
      <point x="463" y="719"/>
      <point x="509" y="672"/>
      <point x="509" y="588" type="curve" smooth="yes"/>
      <point x="509" y="582" type="line"/>
      <point x="279" y="607"/>
      <point x="32" y="544"/>
      <point x="32" y="275" type="curve" smooth="yes"/>
      <point x="32" y="89"/>
      <point x="154" y="-22"/>
      <point x="335" y="-22" type="curve" smooth="yes"/>
      <point x="448" y="-22"/>
      <point x="539" y="18"/>
      <point x="603" y="102" type="curve"/>
      <point x="655" y="24"/>
      <point x="733" y="-22"/>
      <point x="843" y="-22" type="curve" smooth="yes"/>
      <point x="950" y="-22"/>
      <point x="1055" y="10"/>
      <point x="1145" y="49" type="curve" smooth="yes"/>
      <point x="1193" y="70"/>
      <point x="1201" y="108"/>
      <point x="1176" y="179" type="curve" smooth="yes"/>
      <point x="1155" y="241"/>
      <point x="1127" y="277"/>
      <point x="1076" y="255" type="curve" smooth="yes"/>
      <point x="994" y="220"/>
      <point x="933" y="205"/>
      <point x="858" y="205" type="curve" smooth="yes"/>
      <point x="782" y="205"/>
      <point x="738" y="262"/>
      <point x="724" y="370" type="curve"/>
      <point x="1130" y="370" type="line" smooth="yes"/>
      <point x="1175" y="370"/>
      <point x="1193" y="387"/>
      <point x="1193" y="432" type="curve" smooth="yes"/>
      <point x="1193" y="729"/>
      <point x="1129" y="946"/>
      <point x="858" y="946" type="curve" smooth="yes"/>
    </contour>
    <contour>
      <point x="509" y="358" type="line" smooth="yes"/>
      <point x="509" y="261"/>
      <point x="453" y="189"/>
      <point x="358" y="189" type="curve" smooth="yes"/>
      <point x="292" y="189"/>
      <point x="260" y="226"/>
      <point x="260" y="285" type="curve" smooth="yes"/>
      <point x="260" y="390"/>
      <point x="366" y="398"/>
      <point x="509" y="390" type="curve"/>
    </contour>
    <contour>
      <point x="926" y="719"/>
      <point x="962" y="661"/>
      <point x="968" y="565" type="curve"/>
      <point x="724" y="565" type="line"/>
      <point x="738" y="669"/>
      <point x="777" y="719"/>
      <point x="858" y="719" type="curve" smooth="yes"/>
    </contour>
  </outline>
</glyph>
<glyph name="divide" format="1">
  <advance width="1228"/>
  <unicode hex="00F7"/>
  <outline>
    <contour>
      <point x="526" y="340"/>
      <point x="489" y="322"/>
      <point x="489" y="277" type="curve" smooth="yes"/>
      <point x="489" y="133" type="line" smooth="yes"/>
      <point x="489" y="88"/>
      <point x="526" y="70"/>
      <point x="614" y="70" type="curve" smooth="yes"/>
      <point x="702" y="70"/>
      <point x="739" y="88"/>
      <point x="739" y="133" type="curve" smooth="yes"/>
      <point x="739" y="277" type="line" smooth="yes"/>
      <point x="739" y="322"/>
      <point x="702" y="340"/>
      <point x="614" y="340" type="curve" smooth="yes"/>
    </contour>
    <contour>
      <point x="526" y="1095"/>
      <point x="489" y="1077"/>
      <point x="489" y="1032" type="curve" smooth="yes"/>
      <point x="489" y="888" type="line" smooth="yes"/>
      <point x="489" y="843"/>
      <point x="526" y="825"/>
      <point x="614" y="825" type="curve" smooth="yes"/>
      <point x="702" y="825"/>
      <point x="739" y="843"/>
      <point x="739" y="888" type="curve" smooth="yes"/>
      <point x="739" y="1032" type="line" smooth="yes"/>
      <point x="739" y="1077"/>
      <point x="702" y="1095"/>
      <point x="614" y="1095" type="curve" smooth="yes"/>
    </contour>
    <component base="minus"/>
  </outline>
</glyph>
<glyph name="thorn" format="1">
  <advance width="1228"/>
  <unicode hex="00FE"/>
  <outline>
    <contour>
      <point x="100" y="1312" type="line" smooth="yes"/>
      <point x="55" y="1312"/>
      <point x="37" y="1294"/>
      <point x="37" y="1209" type="curve" smooth="yes"/>
      <point x="37" y="1124"/>
      <point x="55" y="1107"/>
      <point x="100" y="1107" type="curve" smooth="yes"/>
      <point x="187" y="1107" type="line"/>
      <point x="187" y="-183" type="line"/>
      <point x="100" y="-183" type="line" smooth="yes"/>
      <point x="55" y="-183"/>
      <point x="37" y="-201"/>
      <point x="37" y="-286" type="curve" smooth="yes"/>
      <point x="37" y="-371"/>
      <point x="55" y="-388"/>
      <point x="100" y="-388" type="curve" smooth="yes"/>
      <point x="604" y="-388" type="line" smooth="yes"/>
      <point x="649" y="-388"/>
      <point x="667" y="-370"/>
      <point x="667" y="-285" type="curve" smooth="yes"/>
      <point x="667" y="-200"/>
      <point x="649" y="-183"/>
      <point x="604" y="-183" type="curve" smooth="yes"/>
      <point x="437" y="-183" type="line"/>
      <point x="437" y="96" type="line"/>
      <point x="504" y="22"/>
      <point x="594" y="-22"/>
      <point x="700" y="-22" type="curve" smooth="yes"/>
      <point x="969" y="-22"/>
      <point x="1131" y="192"/>
      <point x="1131" y="462" type="curve" smooth="yes"/>
      <point x="1131" y="732"/>
      <point x="969" y="946"/>
      <point x="700" y="946" type="curve" smooth="yes"/>
      <point x="594" y="946"/>
      <point x="504" y="902"/>
      <point x="437" y="828" type="curve"/>
      <point x="437" y="1249" type="line" smooth="yes"/>
      <point x="437" y="1294"/>
      <point x="419" y="1312"/>
      <point x="374" y="1312" type="curve" smooth="yes"/>
    </contour>
    <contour>
      <point x="785" y="719"/>
      <point x="863" y="618"/>
      <point x="863" y="462" type="curve" smooth="yes"/>
      <point x="863" y="306"/>
      <point x="785" y="205"/>
      <point x="660" y="205" type="curve" smooth="yes"/>
      <point x="535" y="205"/>
      <point x="430" y="296"/>
      <point x="430" y="462" type="curve" smooth="yes"/>
      <point x="430" y="628"/>
      <point x="535" y="719"/>
      <point x="660" y="719" type="curve" smooth="yes"/>
    </contour>
  </outline>
</glyph>
<glyph name="Ldot" format="1">
  <advance width="1228"/>
  <unicode hex="013F"/>
  <outline>
    <contour>
      <point x="123" y="1187" type="line" smooth="yes"/>
      <point x="78" y="1187"/>
      <point x="60" y="1169"/>
      <point x="60" y="1084" type="curve" smooth="yes"/>
      <point x="60" y="999"/>
      <point x="78" y="982"/>
      <point x="123" y="982" type="curve" smooth="yes"/>
      <point x="269" y="982" type="line"/>
      <point x="269" y="205" type="line"/>
      <point x="123" y="205" type="line" smooth="yes"/>
      <point x="78" y="205"/>
      <point x="60" y="187"/>
      <point x="60" y="102" type="curve" smooth="yes"/>
      <point x="60" y="17"/>
      <point x="78" y="0"/>
      <point x="123" y="0" type="curve" smooth="yes"/>
      <point x="1055" y="0" type="line" smooth="yes"/>
      <point x="1101" y="0"/>
      <point x="1120" y="19"/>
      <point x="1120" y="65" type="curve" smooth="yes"/>
      <point x="1120" y="397" type="line" smooth="yes"/>
      <point x="1120" y="442"/>
      <point x="1097" y="460"/>
      <point x="1002" y="460" type="curve" smooth="yes"/>
      <point x="907" y="460"/>
      <point x="870" y="442"/>
      <point x="870" y="397" type="curve" smooth="yes"/>
      <point x="870" y="215" type="line"/>
      <point x="519" y="215" type="line"/>
      <point x="519" y="982" type="line"/>
      <point x="737" y="982" type="line" smooth="yes"/>
      <point x="782" y="982"/>
      <point x="800" y="999"/>
      <point x="800" y="1084" type="curve" smooth="yes"/>
      <point x="800" y="1169"/>
      <point x="782" y="1187"/>
      <point x="737" y="1187" type="curve" smooth="yes"/>
    </contour>
    <contour>
      <point x="715" y="896"/>
      <point x="634" y="815"/>
      <point x="634" y="716" type="curve" smooth="yes"/>
      <point x="634" y="617"/>
      <point x="715" y="536"/>
      <point x="814" y="536" type="curve" smooth="yes"/>
      <point x="913" y="536"/>
      <point x="994" y="617"/>
      <point x="994" y="716" type="curve" smooth="yes"/>
      <point x="994" y="815"/>
      <point x="913" y="896"/>
      <point x="814" y="896" type="curve" smooth="yes"/>
    </contour>
  </outline>
</glyph>
<glyph name="OE" format="1">
  <advance width="1228"/>
  <unicode hex="0152"/>
  <outline>
    <contour>
      <point x="594" y="1187" type="line"/>
      <point x="264" y="1187"/>
      <point x="63" y="974"/>
      <point x="63" y="594" type="curve" smooth="yes"/>
      <point x="63" y="214"/>
      <point x="264" y="0"/>
      <point x="594" y="0" type="curve" smooth="yes"/>
      <point x="1105" y="0" type="line" smooth="yes"/>
      <point x="1151" y="0"/>
      <point x="1170" y="19"/>
      <point x="1170" y="65" type="curve" smooth="yes"/>
      <point x="1170" y="387" type="line" smooth="yes"/>
      <point x="1170" y="432"/>
      <point x="1151" y="450"/>
      <point x="1066" y="450" type="curve" smooth="yes"/>
      <point x="981" y="450"/>
      <point x="950" y="432"/>
      <point x="950" y="387" type="curve" smooth="yes"/>
      <point x="950" y="205" type="line"/>
      <point x="770" y="205" type="line"/>
      <point x="770" y="514" type="line"/>
      <point x="884" y="514" type="line" smooth="yes"/>
      <point x="929" y="514"/>
      <point x="947" y="536"/>
      <point x="947" y="621" type="curve" smooth="yes"/>
      <point x="947" y="706"/>
      <point x="929" y="729"/>
      <point x="884" y="729" type="curve" smooth="yes"/>
      <point x="770" y="729" type="line"/>
      <point x="770" y="982" type="line"/>
      <point x="940" y="982" type="line"/>
      <point x="940" y="850" type="line" smooth="yes"/>
      <point x="940" y="805"/>
      <point x="958" y="787"/>
      <point x="1038" y="787" type="curve" smooth="yes"/>
      <point x="1118" y="787"/>
      <point x="1150" y="805"/>
      <point x="1150" y="850" type="curve" smooth="yes"/>
      <point x="1150" y="1122" type="line" smooth="yes"/>
      <point x="1150" y="1168"/>
      <point x="1131" y="1187"/>
      <point x="1085" y="1187" type="curve" smooth="yes"/>
    </contour>
    <contour>
      <point x="540" y="215" type="line"/>
      <point x="403" y="226"/>
      <point x="303" y="348"/>
      <point x="303" y="594" type="curve" smooth="yes"/>
      <point x="303" y="840"/>
      <point x="403" y="961"/>
      <point x="540" y="972" type="curve"/>
    </contour>
  </outline>
</glyph>
<glyph name="oe" format="1">
  <advance width="1228"/>
  <unicode hex="0153"/>
  <outline>
    <contour>
      <point x="753" y="946"/>
      <point x="675" y="905"/>
      <point x="620" y="836" type="curve"/>
      <point x="568" y="905"/>
      <point x="492" y="946"/>
      <point x="384" y="946" type="curve" smooth="yes"/>
      <point x="125" y="946"/>
      <point x="27" y="742"/>
      <point x="27" y="462" type="curve" smooth="yes"/>
      <point x="27" y="182"/>
      <point x="125" y="-22"/>
      <point x="384" y="-22" type="curve" smooth="yes"/>
      <point x="488" y="-22"/>
      <point x="564" y="17"/>
      <point x="616" y="84" type="curve"/>
      <point x="667" y="17"/>
      <point x="742" y="-22"/>
      <point x="843" y="-22" type="curve" smooth="yes"/>
      <point x="950" y="-22"/>
      <point x="1055" y="10"/>
      <point x="1145" y="49" type="curve" smooth="yes"/>
      <point x="1193" y="70"/>
      <point x="1201" y="108"/>
      <point x="1176" y="179" type="curve" smooth="yes"/>
      <point x="1155" y="241"/>
      <point x="1127" y="277"/>
      <point x="1076" y="255" type="curve" smooth="yes"/>
      <point x="993" y="220"/>
      <point x="933" y="205"/>
      <point x="858" y="205" type="curve" smooth="yes"/>
      <point x="782" y="205"/>
      <point x="738" y="262"/>
      <point x="724" y="370" type="curve"/>
      <point x="1130" y="370" type="line" smooth="yes"/>
      <point x="1175" y="370"/>
      <point x="1193" y="387"/>
      <point x="1193" y="432" type="curve" smooth="yes"/>
      <point x="1193" y="729"/>
      <point x="1129" y="946"/>
      <point x="858" y="946" type="curve" smooth="yes"/>
    </contour>
    <contour>
      <point x="470" y="719"/>
      <point x="503" y="638"/>
      <point x="503" y="462" type="curve" smooth="yes"/>
      <point x="503" y="286"/>
      <point x="470" y="205"/>
      <point x="384" y="205" type="curve" smooth="yes"/>
      <point x="298" y="205"/>
      <point x="265" y="286"/>
      <point x="265" y="462" type="curve" smooth="yes"/>
      <point x="265" y="638"/>
      <point x="298" y="719"/>
      <point x="384" y="719" type="curve" smooth="yes"/>
    </contour>
    <contour>
      <point x="926" y="719"/>
      <point x="962" y="661"/>
      <point x="968" y="565" type="curve"/>
      <point x="724" y="565" type="line"/>
      <point x="738" y="669"/>
      <point x="777" y="719"/>
      <point x="858" y="719" type="curve" smooth="yes"/>
    </contour>
  </outline>
</glyph>
<glyph name="dotlessj" format="1">
  <advance width="1228"/>
  <unicode hex="0237"/>
  <outline>
    <contour>
      <point x="290" y="924" type="line" smooth="yes"/>
      <point x="245" y="924"/>
      <point x="227" y="906"/>
      <point x="227" y="821" type="curve" smooth="yes"/>
      <point x="227" y="736"/>
      <point x="245" y="719"/>
      <point x="290" y="719" type="curve" smooth="yes"/>
      <point x="673" y="719" type="line"/>
      <point x="673" y="-17" type="line" smooth="yes"/>
      <point x="673" y="-132"/>
      <point x="626" y="-183"/>
      <point x="544" y="-183" type="curve" smooth="yes"/>
      <point x="476" y="-183"/>
      <point x="381" y="-144"/>
      <point x="293" y="-105" type="curve" smooth="yes"/>
      <point x="240" y="-83"/>
      <point x="208" y="-105"/>
      <point x="177" y="-178" type="curve" smooth="yes"/>
      <point x="147" y="-249"/>
      <point x="155" y="-290"/>
      <point x="204" y="-315" type="curve" smooth="yes"/>
      <point x="325" y="-376"/>
      <point x="451" y="-410"/>
      <point x="566" y="-410" type="curve" smooth="yes"/>
      <point x="798" y="-410"/>
      <point x="923" y="-279"/>
      <point x="923" y="-30" type="curve" smooth="yes"/>
      <point x="923" y="861" type="line" smooth="yes"/>
      <point x="923" y="906"/>
      <point x="905" y="924"/>
      <point x="860" y="924" type="curve" smooth="yes"/>
    </contour>
  </outline>
</glyph>
<glyph name="circumflex" format="1">
  <advance width="1228"/>
  <unicode hex="02C6"/>
  <outline>
    <contour>
      <point x="593" y="1406"/>
      <point x="573" y="1401"/>
      <point x="559" y="1388" type="curve" smooth="yes"/>
      <point x="272" y="1127" type="line" smooth="yes"/>
      <point x="249" y="1106"/>
      <point x="249" y="1078"/>
      <point x="268" y="1053" type="curve" smooth="yes"/>
      <point x="286" y="1029"/>
      <point x="310" y="1017"/>
      <point x="335" y="1029" type="curve" smooth="yes"/>
      <point x="614" y="1163" type="line"/>
      <point x="893" y="1029" type="line" smooth="yes"/>
      <point x="918" y="1017"/>
      <point x="942" y="1029"/>
      <point x="960" y="1053" type="curve" smooth="yes"/>
      <point x="979" y="1078"/>
      <point x="979" y="1106"/>
      <point x="956" y="1127" type="curve" smooth="yes"/>
      <point x="669" y="1388" type="line" smooth="yes"/>
      <point x="655" y="1401"/>
      <point x="635" y="1406"/>
      <point x="614" y="1406" type="curve" smooth="yes"/>
    </contour>
  </outline>
</glyph>
<glyph name="breve" format="1">
  <advance width="1228"/>
  <unicode hex="02D8"/>
  <outline>
    <contour>
      <point x="851" y="1401"/>
      <point x="825" y="1395"/>
      <point x="815" y="1367" type="curve" smooth="yes"/>
      <point x="784" y="1282"/>
      <point x="722" y="1245"/>
      <point x="614" y="1245" type="curve" smooth="yes"/>
      <point x="506" y="1245"/>
      <point x="444" y="1282"/>
      <point x="413" y="1367" type="curve" smooth="yes"/>
      <point x="403" y="1395"/>
      <point x="377" y="1401"/>
      <point x="327" y="1387" type="curve" smooth="yes"/>
      <point x="277" y="1373"/>
      <point x="255" y="1352"/>
      <point x="262" y="1315" type="curve" smooth="yes"/>
      <point x="293" y="1151"/>
      <point x="412" y="1041"/>
      <point x="614" y="1041" type="curve" smooth="yes"/>
      <point x="816" y="1041"/>
      <point x="935" y="1151"/>
      <point x="966" y="1315" type="curve" smooth="yes"/>
      <point x="973" y="1352"/>
      <point x="951" y="1373"/>
      <point x="901" y="1387" type="curve" smooth="yes"/>
    </contour>
  </outline>
</glyph>
<glyph name="ring" format="1">
  <advance width="1228"/>
  <unicode hex="02DA"/>
  <outline>
    <contour>
      <point x="469" y="1557"/>
      <point x="352" y="1440"/>
      <point x="352" y="1295" type="curve" smooth="yes"/>
      <point x="352" y="1150"/>
      <point x="469" y="1033"/>
      <point x="614" y="1033" type="curve" smooth="yes"/>
      <point x="759" y="1033"/>
      <point x="876" y="1150"/>
      <point x="876" y="1295" type="curve" smooth="yes"/>
      <point x="876" y="1440"/>
      <point x="759" y="1557"/>
      <point x="614" y="1557" type="curve" smooth="yes"/>
    </contour>
    <contour>
      <point x="671" y="1398"/>
      <point x="717" y="1352"/>
      <point x="717" y="1295" type="curve" smooth="yes"/>
      <point x="717" y="1238"/>
      <point x="671" y="1192"/>
      <point x="614" y="1192" type="curve" smooth="yes"/>
      <point x="557" y="1192"/>
      <point x="511" y="1238"/>
      <point x="511" y="1295" type="curve" smooth="yes"/>
      <point x="511" y="1352"/>
      <point x="557" y="1398"/>
      <point x="614" y="1398" type="curve" smooth="yes"/>
    </contour>
  </outline>
</glyph>
<glyph name="hungarumlaut" format="1">
  <advance width="1228"/>
  <unicode hex="02DD"/>
  <outline>
    <contour>
      <point x="581" y="1420"/>
      <point x="532" y="1414"/>
      <point x="510" y="1388" type="curve" smooth="yes"/>
      <point x="289" y="1122" type="line" smooth="yes"/>
      <point x="270" y="1099"/>
      <point x="286" y="1071"/>
      <point x="334" y="1053" type="curve" smooth="yes"/>
      <point x="387" y="1033"/>
      <point x="426" y="1034"/>
      <point x="448" y="1054" type="curve" smooth="yes"/>
      <point x="713" y="1294" type="line" smooth="yes"/>
      <point x="738" y="1317"/>
      <point x="734" y="1351"/>
      <point x="656" y="1386" type="curve" smooth="yes"/>
    </contour>
    <contour>
      <point x="1011" y="1420"/>
      <point x="962" y="1414"/>
      <point x="940" y="1388" type="curve" smooth="yes"/>
      <point x="719" y="1122" type="line" smooth="yes"/>
      <point x="700" y="1099"/>
      <point x="716" y="1071"/>
      <point x="764" y="1053" type="curve" smooth="yes"/>
      <point x="817" y="1033"/>
      <point x="856" y="1034"/>
      <point x="878" y="1054" type="curve" smooth="yes"/>
      <point x="1143" y="1294" type="line" smooth="yes"/>
      <point x="1168" y="1317"/>
      <point x="1164" y="1351"/>
      <point x="1086" y="1386" type="curve" smooth="yes"/>
    </contour>
  </outline>
</glyph>
<glyph name="quoteleft" format="1">
  <advance width="1228"/>
  <unicode hex="2018"/>
  <outline>
    <contour>
      <point x="663" y="1307"/>
      <point x="635" y="1290"/>
      <point x="613" y="1246" type="curve" smooth="yes"/>
      <point x="376" y="772" type="line" smooth="yes"/>
      <point x="359" y="737"/>
      <point x="371" y="709"/>
      <point x="404" y="709" type="curve" smooth="yes"/>
      <point x="663" y="709" type="line" smooth="yes"/>
      <point x="691" y="709"/>
      <point x="710" y="723"/>
      <point x="715" y="749" type="curve" smooth="yes"/>
      <point x="799" y="1221" type="line" smooth="yes"/>
      <point x="810" y="1283"/>
      <point x="785" y="1307"/>
      <point x="719" y="1307" type="curve" smooth="yes"/>
    </contour>
  </outline>
</glyph>
<glyph name="foursuperior" format="1">
  <advance width="1228"/>
  <unicode hex="2074"/>
  <outline>
    <contour>
      <point x="671" y="1334"/>
      <point x="640" y="1319"/>
      <point x="618" y="1291" type="curve" smooth="yes"/>
      <point x="247" y="838" type="line" smooth="yes"/>
      <point x="235" y="822"/>
      <point x="230" y="808"/>
      <point x="230" y="785" type="curve" smooth="yes"/>
      <point x="230" y="729"/>
      <point x="263" y="665"/>
      <point x="294" y="665" type="curve" smooth="yes"/>
      <point x="641" y="665" type="line"/>
      <point x="641" y="523" type="line" smooth="yes"/>
      <point x="641" y="492"/>
      <point x="671" y="475"/>
      <point x="749" y="475" type="curve" smooth="yes"/>
      <point x="819" y="475"/>
      <point x="836" y="492"/>
      <point x="836" y="523" type="curve" smooth="yes"/>
      <point x="836" y="665" type="line"/>
      <point x="926" y="665" type="line" smooth="yes"/>
      <point x="962" y="665"/>
      <point x="977" y="690"/>
      <point x="977" y="749" type="curve" smooth="yes"/>
      <point x="977" y="807"/>
      <point x="962" y="833"/>
      <point x="926" y="833" type="curve" smooth="yes"/>
      <point x="836" y="833" type="line"/>
      <point x="836" y="1278" type="line" smooth="yes"/>
      <point x="836" y="1312"/>
      <point x="801" y="1334"/>
      <point x="728" y="1334" type="curve" smooth="yes"/>
    </contour>
    <contour>
      <point x="641" y="833" type="line"/>
      <point x="461" y="833" type="line"/>
      <point x="647" y="1072" type="line"/>
    </contour>
  </outline>
</glyph>
<glyph name="partialdiff" format="1">
  <advance width="1228"/>
  <unicode hex="2202"/>
  <outline>
    <contour>
      <point x="560" y="1209"/>
      <point x="484" y="1196"/>
      <point x="407" y="1170" type="curve" smooth="yes"/>
      <point x="357" y="1153"/>
      <point x="340" y="1124"/>
      <point x="364" y="1045" type="curve" smooth="yes"/>
      <point x="389" y="964"/>
      <point x="417" y="953"/>
      <point x="444" y="961" type="curve" smooth="yes"/>
      <point x="496" y="975"/>
      <point x="543" y="983"/>
      <point x="585" y="983" type="curve" smooth="yes"/>
      <point x="732" y="983"/>
      <point x="816" y="893"/>
      <point x="816" y="708" type="curve" smooth="yes"/>
      <point x="816" y="678"/>
      <point x="814" y="645"/>
      <point x="809" y="609" type="curve"/>
      <point x="747" y="694"/>
      <point x="650" y="741"/>
      <point x="532" y="741" type="curve" smooth="yes"/>
      <point x="313" y="741"/>
      <point x="147" y="585"/>
      <point x="147" y="349" type="curve" smooth="yes"/>
      <point x="147" y="115"/>
      <point x="296" y="-23"/>
      <point x="526" y="-23" type="curve" smooth="yes"/>
      <point x="751" y="-23"/>
      <point x="905" y="101"/>
      <point x="993" y="360" type="curve" smooth="yes"/>
      <point x="1034" y="482"/>
      <point x="1058" y="612"/>
      <point x="1058" y="731" type="curve" smooth="yes"/>
      <point x="1058" y="1056"/>
      <point x="872" y="1209"/>
      <point x="631" y="1209" type="curve" smooth="yes"/>
    </contour>
    <contour>
      <point x="656" y="513"/>
      <point x="724" y="460"/>
      <point x="757" y="387" type="curve"/>
      <point x="712" y="265"/>
      <point x="645" y="207"/>
      <point x="535" y="206" type="curve" smooth="yes"/>
      <point x="448" y="205"/>
      <point x="391" y="262"/>
      <point x="391" y="348" type="curve" smooth="yes"/>
      <point x="391" y="448"/>
      <point x="456" y="513"/>
      <point x="565" y="513" type="curve" smooth="yes"/>
    </contour>
  </outline>
</glyph>
<glyph name="notequal" format="1">
  <advance width="1228"/>
  <unicode hex="2260"/>
  <outline>
    <contour>
      <point x="813" y="1130"/>
      <point x="789" y="1123"/>
      <point x="767" y="1083" type="curve" smooth="yes"/>
      <point x="682" y="924" type="line"/>
      <point x="571" y="699" type="line"/>
      <point x="446" y="466" type="line"/>
      <point x="336" y="241" type="line"/>
      <point x="297" y="169" type="line" smooth="yes"/>
      <point x="276" y="130"/>
      <point x="283" y="105"/>
      <point x="349" y="70" type="curve" smooth="yes"/>
      <point x="416" y="35"/>
      <point x="439" y="42"/>
      <point x="461" y="82" type="curve" smooth="yes"/>
      <point x="546" y="241" type="line"/>
      <point x="657" y="466" type="line"/>
      <point x="782" y="699" type="line"/>
      <point x="893" y="924" type="line"/>
      <point x="931" y="995" type="line" smooth="yes"/>
      <point x="952" y="1035"/>
      <point x="945" y="1059"/>
      <point x="879" y="1095" type="curve" smooth="yes"/>
    </contour>
    <component base="equal"/>
  </outline>
</glyph>
<glyph name="caron.alt" format="1">
  <advance width="1228"/>
  <outline>
    <contour>
      <point x="345" y="1312" type="line" smooth="yes"/>
      <point x="322" y="1312"/>
      <point x="306" y="1300"/>
      <point x="302" y="1279" type="curve" smooth="yes"/>
      <point x="232" y="888" type="line" smooth="yes"/>
      <point x="223" y="837"/>
      <point x="244" y="817"/>
      <point x="299" y="817" type="curve" smooth="yes"/>
      <point x="345" y="817"/>
      <point x="368" y="831"/>
      <point x="386" y="867" type="curve" smooth="yes"/>
      <point x="582" y="1260" type="line" smooth="yes"/>
      <point x="596" y="1289"/>
      <point x="586" y="1312"/>
      <point x="559" y="1312" type="curve" smooth="yes"/>
    </contour>
  </outline>
</glyph>
<glyph name="comma.alt" format="1">
  <advance width="1228"/>
  <outline>
    <contour>
      <point x="800" y="354" type="line" smooth="yes"/>
      <point x="772" y="354"/>
      <point x="753" y="340"/>
      <point x="748" y="314" type="curve" smooth="yes"/>
      <point x="654" y="-228" type="line" smooth="yes"/>
      <point x="647" y="-271"/>
      <point x="678" y="-294"/>
      <point x="734" y="-294" type="curve" smooth="yes"/>
      <point x="780" y="-294"/>
      <point x="806" y="-281"/>
      <point x="820" y="-253" type="curve" smooth="yes"/>
      <point x="1087" y="291" type="line" smooth="yes"/>
      <point x="1104" y="326"/>
      <point x="1092" y="354"/>
      <point x="1059" y="354" type="curve" smooth="yes"/>
    </contour>
  </outline>
</glyph>
<glyph name="ellipsis.alt2" format="1">
  <advance width="1228"/>
  <outline>
    <contour>
      <point x="2627" y="394"/>
      <point x="2534" y="301"/>
      <point x="2534" y="186" type="curve" smooth="yes"/>
      <point x="2534" y="71"/>
      <point x="2627" y="-22"/>
      <point x="2742" y="-22" type="curve" smooth="yes"/>
      <point x="2857" y="-22"/>
      <point x="2950" y="71"/>
      <point x="2950" y="186" type="curve" smooth="yes"/>
      <point x="2950" y="301"/>
      <point x="2857" y="394"/>
      <point x="2742" y="394" type="curve" smooth="yes"/>
    </contour>
    <contour>
      <point x="827" y="394"/>
      <point x="734" y="301"/>
      <point x="734" y="186" type="curve" smooth="yes"/>
      <point x="734" y="71"/>
      <point x="827" y="-22"/>
      <point x="942" y="-22" type="curve" smooth="yes"/>
      <point x="1057" y="-22"/>
      <point x="1150" y="71"/>
      <point x="1150" y="186" type="curve" smooth="yes"/>
      <point x="1150" y="301"/>
      <point x="1057" y="394"/>
      <point x="942" y="394" type="curve" smooth="yes"/>
    </contour>
    <contour>
      <point x="1727" y="394"/>
      <point x="1634" y="301"/>
      <point x="1634" y="186" type="curve" smooth="yes"/>
      <point x="1634" y="71"/>
      <point x="1727" y="-22"/>
      <point x="1842" y="-22" type="curve" smooth="yes"/>
      <point x="1957" y="-22"/>
      <point x="2050" y="71"/>
      <point x="2050" y="186" type="curve" smooth="yes"/>
      <point x="2050" y="301"/>
      <point x="1957" y="394"/>
      <point x="1842" y="394" type="curve" smooth="yes"/>
    </contour>
  </outline>
</glyph>
